<?xml version="1.0" standalone="no"?>
<!DOCTYPE svg PUBLIC "-//W3C//DTD SVG 20010904//EN"
 "http://www.w3.org/TR/2001/REC-SVG-20010904/DTD/svg10.dtd">
<svg version="1.0" xmlns="http://www.w3.org/2000/svg"
 width="225.000000pt" height="225.000000pt" viewBox="0 0 225.000000 225.000000"
 preserveAspectRatio="xMidYMid meet">
<metadata>
Created by potrace 1.15, written by Peter Selinger 2001-2017
</metadata>
<g transform="translate(0.000000,225.000000) scale(0.100000,-0.100000)"
fill="#000000" stroke="none">
<path d="M960 1879 c-459 -49 -820 -270 -921 -566 -34 -97 -34 -266 -1 -373
87 -279 344 -475 742 -565 112 -26 485 -32 616 -11 404 64 699 263 800 540 50
139 52 291 5 427 -79 232 -361 435 -711 512 -197 44 -356 55 -530 36z m311
-39 c235 -23 444 -90 614 -197 l59 -37 -43 -19 c-73 -32 -179 -49 -266 -44
-81 5 -149 24 -261 71 -34 14 -95 31 -136 37 -98 16 -207 -5 -289 -56 -31 -19
-68 -35 -81 -35 -12 0 -48 -7 -78 -15 -71 -19 -157 -19 -234 0 -99 26 -216 66
-216 75 0 5 30 27 68 49 228 136 557 201 863 171z m116 -274 c209 -78 322 -83
500 -24 106 35 102 36 178 -52 51 -59 115 -180 118 -225 2 -26 -1 -28 -117
-61 -66 -18 -171 -52 -233 -75 -77 -29 -119 -40 -128 -33 -7 5 -95 80 -196
168 -101 87 -207 174 -236 193 -48 33 -57 35 -111 31 -52 -4 -67 -10 -126 -54
-119 -87 -149 -104 -182 -104 -43 0 -84 16 -84 33 0 21 180 192 227 216 111
56 216 52 390 -13z m-1011 -6 c207 -71 306 -84 414 -55 30 8 56 12 59 9 3 -2
-23 -33 -57 -67 -36 -36 -62 -71 -62 -83 0 -37 36 -58 104 -62 73 -5 79 -2
194 81 72 52 91 61 135 64 66 6 88 -8 307 -197 241 -208 250 -217 250 -249 0
-44 -51 -78 -93 -62 -12 5 -60 43 -106 85 -77 70 -101 87 -101 69 0 -4 38 -46
85 -94 47 -47 85 -94 85 -103 0 -27 -55 -76 -85 -76 -19 0 -47 20 -102 72 -42
40 -78 67 -81 60 -2 -6 24 -43 57 -82 34 -39 61 -75 61 -80 0 -21 -41 -50 -72
-50 -24 0 -44 12 -91 57 -73 70 -91 55 -22 -18 38 -41 44 -53 35 -64 -14 -17
-67 -20 -105 -5 -24 9 -26 14 -21 45 12 64 -44 145 -100 145 -18 0 -25 7 -30
28 -15 73 -50 105 -115 107 -25 1 -47 9 -63 24 -29 27 -102 39 -135 22 -18
-10 -26 -9 -48 8 -30 24 -67 27 -105 7 -25 -13 -32 -11 -106 25 -43 21 -148
57 -233 80 -85 24 -158 46 -163 50 -28 24 87 225 171 298 25 23 47 41 48 41 0
0 41 -14 91 -30z m-198 -385 c114 -29 190 -54 272 -91 58 -26 60 -28 60 -65 0
-72 41 -119 105 -119 16 0 25 -5 25 -16 0 -9 16 -32 36 -50 26 -25 45 -34 69
-34 21 0 39 -7 47 -18 22 -31 61 -52 96 -52 25 0 40 -8 58 -30 14 -16 43 -35
64 -41 33 -10 44 -9 83 10 41 20 46 20 80 6 49 -20 96 -19 135 5 18 11 45 20
60 20 32 0 87 31 101 58 6 11 25 22 46 25 49 8 93 42 103 80 7 28 13 32 45 35
23 2 47 14 68 33 29 27 31 34 27 78 l-5 48 111 40 c129 47 323 99 333 89 13
-13 -18 -163 -48 -225 -52 -113 -133 -200 -264 -286 -360 -237 -933 -273
-1363 -87 -281 122 -450 319 -469 544 -7 81 -13 79 125 43z m494 -135 l22 -30
23 22 c43 40 113 25 134 -29 7 -20 12 -22 28 -13 31 16 66 12 96 -12 24 -19
27 -26 23 -68 l-5 -48 38 5 c33 5 42 1 69 -25 40 -41 41 -83 1 -123 -51 -50
-131 -28 -146 41 -6 28 -8 29 -28 15 -12 -8 -29 -15 -38 -15 -25 0 -79 48 -79
70 0 16 -4 17 -29 7 -43 -16 -93 16 -106 69 -10 39 -11 40 -39 31 -39 -13 -80
17 -84 62 -7 71 76 99 120 41z"/>
</g>
</svg>
