<?xml version="1.0" standalone="no"?>
<!DOCTYPE svg PUBLIC "-//W3C//DTD SVG 20010904//EN"
 "http://www.w3.org/TR/2001/REC-SVG-20010904/DTD/svg10.dtd">
<svg version="1.0" xmlns="http://www.w3.org/2000/svg"
 width="300.000000pt" height="300.000000pt" viewBox="0 0 300.000000 300.000000"
 preserveAspectRatio="xMidYMid meet">
<metadata>
Created by potrace 1.10, written by Peter Selinger 2001-2011
</metadata>
<g transform="translate(0.000000,300.000000) scale(0.100000,-0.100000)"
fill="#000000" stroke="none">
<path d="M1385 2078 c-141 -28 -220 -52 -314 -99 -217 -107 -336 -282 -335
-494 1 -275 212 -506 541 -591 90 -23 111 -25 253 -21 178 5 243 21 380 89
104 52 228 170 277 263 112 213 75 460 -91 625 -126 124 -249 183 -463 220
-119 21 -169 23 -248 8z m296 -44 c94 -18 190 -53 269 -101 64 -38 107 -70
100 -75 -22 -16 -91 -39 -144 -49 -80 -15 -143 -4 -241 42 -113 53 -242 50
-306 -7 -20 -18 -147 -54 -189 -54 -35 0 -217 56 -225 70 -8 13 115 92 195
125 149 62 369 82 541 49z m-17 -213 c50 -21 111 -41 134 -45 57 -9 152 9 226
42 l59 26 34 -39 c42 -50 90 -148 99 -203 6 -37 4 -42 -13 -42 -24 0 -141 -39
-245 -82 l-76 -31 -145 138 c-80 76 -159 147 -176 158 -49 30 -91 18 -168 -47
-53 -46 -71 -56 -101 -56 -67 0 -71 12 -23 74 87 113 140 145 240 146 52 0 80
-7 155 -39z m-660 -15 c117 -43 164 -51 227 -36 27 7 52 10 55 8 2 -3 -15 -29
-38 -58 -46 -57 -45 -73 6 -98 37 -19 77 -7 128 37 68 59 90 71 131 71 35 0
49 -10 176 -129 208 -195 221 -213 184 -253 -28 -32 -55 -21 -123 47 -35 35
-66 63 -68 60 -3 -2 21 -33 52 -68 62 -71 71 -105 34 -131 -36 -26 -54 -19
-104 39 -26 31 -49 53 -51 51 -3 -2 14 -29 36 -59 43 -57 49 -75 29 -95 -25
-25 -63 -14 -97 28 -17 22 -37 40 -42 40 -6 0 6 -20 26 -45 20 -24 34 -49 30
-55 -9 -14 -82 -13 -91 2 -5 7 -7 28 -5 46 3 41 -21 80 -60 94 -21 7 -29 16
-29 34 0 33 -42 74 -75 74 -15 0 -39 9 -53 21 -21 16 -35 19 -68 14 -26 -3
-45 -2 -49 5 -8 13 -58 13 -71 0 -7 -7 -29 0 -68 21 -32 18 -103 46 -158 64
-54 18 -101 34 -104 37 -7 7 33 123 53 157 23 36 83 111 90 111 3 0 46 -15 97
-34z m1197 -421 c-70 -198 -278 -349 -546 -396 -41 -7 -121 -10 -204 -7 -112
5 -151 10 -221 33 -109 35 -165 62 -243 118 -133 95 -203 208 -220 355 l-5 43
41 -6 c46 -8 196 -66 233 -90 19 -12 24 -25 24 -55 0 -30 6 -43 26 -59 15 -12
35 -21 45 -21 11 0 19 -6 19 -13 0 -18 46 -60 67 -62 10 0 31 -13 47 -28 16
-15 40 -27 53 -27 14 0 34 -12 47 -27 25 -28 75 -35 102 -12 11 9 21 9 40 0
34 -15 76 -14 100 4 10 8 29 15 42 15 13 0 34 12 48 27 13 14 43 35 65 45 27
12 44 28 52 48 7 18 19 30 30 30 10 0 29 12 43 26 21 20 25 33 22 60 -5 44 5
50 182 110 l125 43 3 -49 c2 -29 -5 -70 -17 -105z m-1031 35 c10 -19 12 -19
35 -4 32 21 68 12 83 -21 10 -22 14 -24 31 -13 15 9 24 8 45 -5 21 -14 26 -25
26 -57 0 -37 2 -40 27 -40 39 0 63 -27 63 -70 0 -73 -80 -97 -110 -34 -13 28
-19 31 -47 27 -27 -5 -35 -1 -50 23 -13 21 -24 28 -41 26 -32 -5 -62 25 -62
60 0 25 -3 28 -25 22 -31 -8 -65 19 -65 49 0 49 69 77 90 37z m-300 -215 c6 3
7 0 4 -9 -3 -9 -1 -16 5 -16 11 0 33 -16 82 -63 17 -16 35 -25 42 -21 7 4 9 4
5 -1 -8 -9 53 -45 77 -45 9 0 12 -6 8 -17 -5 -13 -2 -15 16 -10 14 3 24 0 28
-9 3 -9 13 -12 29 -8 13 3 32 3 41 -1 17 -7 16 -8 -2 -15 -14 -6 -7 -8 25 -8
25 0 99 -6 165 -14 l120 -15 -75 -5 c-52 -3 -36 -4 55 -5 72 0 117 2 100 6
l-30 7 29 6 c16 3 57 5 90 3 39 -2 50 0 31 4 l-30 7 30 6 c17 4 42 4 56 1 15
-3 29 0 33 5 4 6 -3 8 -16 5 -21 -4 -21 -3 -5 7 11 7 30 10 44 7 26 -5 86 19
79 31 -2 4 16 16 40 27 24 11 44 23 44 27 0 5 7 8 15 8 8 0 33 18 56 40 23 22
47 40 52 40 5 0 7 7 4 14 -4 10 -1 13 9 9 19 -7 18 -16 -6 -33 -11 -8 -20 -20
-20 -27 0 -7 -3 -13 -7 -13 -5 0 -29 -20 -55 -45 -27 -25 -52 -45 -58 -45 -5
0 -10 -4 -10 -9 0 -14 -90 -61 -117 -61 -14 0 -21 -4 -18 -10 4 -6 -6 -10 -24
-10 -16 0 -33 -4 -36 -10 -3 -5 -17 -10 -30 -10 -13 0 -27 -5 -30 -10 -4 -6
-14 -10 -23 -8 -10 1 -22 -1 -28 -5 -32 -19 -168 -18 -361 5 -7 1 -13 5 -13
10 0 4 -13 8 -29 8 -17 0 -33 5 -36 10 -3 6 -19 10 -36 10 -16 0 -29 5 -29 10
0 6 -12 10 -26 10 -14 0 -23 4 -19 10 3 6 -2 10 -13 10 -41 0 -198 131 -256
215 -16 22 -19 30 -7 17 11 -13 25 -21 31 -17z"/>
<path d="M1548 1003 c7 -3 16 -2 19 1 4 3 -2 6 -13 5 -11 0 -14 -3 -6 -6z"/>
<path d="M1278 963 c6 -2 18 -2 25 0 6 3 1 5 -13 5 -14 0 -19 -2 -12 -5z"/>
</g>
</svg>
